#N canvas 0 62 1280 937 12;
#X obj 518 366 readsf~;
#X obj 504 445 dac~;
#X obj 440 90 random 5;
#X floatatom 440 122 5 0 0 0 - - -, f 5;
#X obj 440 55 bng 15 250 50 0 empty empty empty 17 7 0 10 #fcfcfc #000000
#000000;
#X obj 485 254 bng 19 250 50 0 empty empty empty 17 7 0 10 #fcfcfc
#000000 #000000;
#X obj 440 156 route 0 1 2 3 4;
#X obj 440 188 bng 15 250 50 0 empty empty empty 17 7 0 10 #fcfcfc
#000000 #000000;
#X obj 460 188 bng 15 250 50 0 empty empty empty 17 7 0 10 #fcfcfc
#000000 #000000;
#X obj 479 188 bng 15 250 50 0 empty empty empty 17 7 0 10 #fcfcfc
#000000 #000000;
#X obj 499 188 bng 15 250 50 0 empty empty empty 17 7 0 10 #fcfcfc
#000000 #000000;
#X obj 520 188 bng 15 250 50 0 empty empty empty 17 7 0 10 #fcfcfc
#000000 #000000;
#X msg 600 333 1;
#X obj 652 418 delay;
#X floatatom 936 285 5 0 0 0 - - -, f 5;
#X floatatom 1048 284 5 0 0 0 - - -, f 5;
#X text 905 253 Temps max en S;
#X text 1025 253 Temps min en S;
#N canvas 155 196 420 336 timmingrandom 0;
#X floatatom 153 105 5 0 0 0 - - -, f 5;
#X obj 184 27 bng 15 250 50 0 empty empty empty 17 7 0 10 #fcfcfc #000000
#000000;
#X obj 153 62 random 100;
#X floatatom 152 180 8 0 0 0 - - -, f 8;
#X obj 154 141 *;
#X obj 231 63 random 50;
#X obj 231 128 + 1;
#X floatatom 85 239 5 0 0 0 - - -, f 5;
#X floatatom 150 240 5 0 0 0 - - -, f 5;
#X obj 125 271 route 1;
#X obj 232 253 bng 15 250 50 0 empty empty empty 17 7 0 10 #fcfcfc
#000000 #000000;
#X obj 344 162 * 1000;
#X obj 408 166 * 1000;
#X obj 85 210 >;
#X obj 150 210 <;
#X text 325 67 Temps max en S;
#X text 440 48 Temps min en S;
#X obj 20 280 outlet;
#X obj 90 -1 inlet;
#X obj 337 206 inlet;
#X obj 430 210 inlet;
#X obj 231 97 * 200;
#X obj 300 271 / 1000;
#X obj 328 314 outlet;
#X obj 249 216 delay 50;
#X obj 256 280 + 5;
#X connect 0 0 4 0;
#X connect 1 0 2 0;
#X connect 1 0 5 0;
#X connect 2 0 0 0;
#X connect 3 0 17 0;
#X connect 3 0 13 0;
#X connect 3 0 14 0;
#X connect 3 0 22 0;
#X connect 4 0 3 0;
#X connect 5 0 21 0;
#X connect 6 0 4 1;
#X connect 7 0 9 0;
#X connect 8 0 9 0;
#X connect 9 0 10 0;
#X connect 10 0 24 0;
#X connect 11 0 13 1;
#X connect 12 0 14 1;
#X connect 13 0 7 0;
#X connect 14 0 8 0;
#X connect 18 0 1 0;
#X connect 19 0 11 0;
#X connect 20 0 12 0;
#X connect 21 0 6 0;
#X connect 22 0 25 0;
#X connect 24 0 1 0;
#X connect 25 0 23 0;
#X restore 799 343 pd timmingrandom;
#X text 952 394 Temps en seconde avant le prochain son;
#X msg 454 317 0;
#X floatatom 902 398 5 0 0 0 - - -, f 5;
#X obj 517 413 *~;
#N canvas 0 62 1280 955 newchallenger 0;
#X obj 355 84 inlet;
#X obj 356 149 line~;
#X msg 356 120 1 \, 0 2000;
#X obj 287 218 delay 2000;
#X obj 289 183 bng 15 250 50 0 empty empty empty 17 7 0 10 #fcfcfc
#000000 #000000;
#X obj 293 289 bng 15 250 50 0 empty empty empty 17 7 0 10 #fcfcfc
#000000 #000000;
#X obj 291 255 delay 100;
#X obj 323 281 delay 100;
#X obj 209 346 delay 100;
#X obj 263 392 bng 15 250 50 0 empty empty empty 17 7 0 10 #fcfcfc
#000000 #000000;
#X msg 263 413 1;
#X obj 428 463 counter;
#X floatatom 428 489 5 0 0 0 - - -, f 5;
#X obj 470 440 bng 15 250 50 0 empty empty empty 17 7 0 10 #fcfcfc
#000000 #000000;
#X obj 429 517 route 2;
#X obj 355 180 outlet~;
#X obj 404 85 inlet;
#X obj 369 245 outlet;
#X obj 503 462 outlet;
#X obj 500 280 inlet;
#X msg 293 311 open /home/admin/Desktop/ProjetSin/NewChallenger.aif
;
#X obj 206 311 delay 6000;
#X obj 320 407 readsf~;
#X obj 320 460 outlet~;
#X obj 370 440 bng 15 250 50 0 empty empty empty 17 7 0 10 #fcfcfc
#000000 #000000;
#X obj 520 430 delay 5000;
#X msg 296 353 open /home/admin/Desktop/ProjetSin/HardSound.aiff;
#X connect 0 0 2 0;
#X connect 0 0 4 0;
#X connect 1 0 15 0;
#X connect 2 0 1 0;
#X connect 3 0 6 0;
#X connect 3 0 17 0;
#X connect 4 0 3 0;
#X connect 5 0 20 0;
#X connect 5 0 21 0;
#X connect 6 0 5 0;
#X connect 6 0 7 0;
#X connect 7 0 9 0;
#X connect 8 0 9 0;
#X connect 9 0 10 0;
#X connect 10 0 22 0;
#X connect 11 0 12 0;
#X connect 12 0 14 0;
#X connect 13 0 11 3;
#X connect 13 0 25 0;
#X connect 14 0 13 0;
#X connect 16 0 1 0;
#X connect 19 0 22 0;
#X connect 20 0 22 0;
#X connect 21 0 26 0;
#X connect 21 0 8 0;
#X connect 22 0 23 0;
#X connect 22 1 24 0;
#X connect 24 0 11 0;
#X connect 25 0 18 0;
#X connect 26 0 22 0;
#X restore 387 484 pd newchallenger;
#X obj 652 388 delay 5000;
#X obj 520 570 bng 15 250 50 0 empty empty empty 17 7 0 10 #fcfcfc
#000000 #000000;
#X msg 315 241 1;
#X msg 349 240 2;
#X msg 381 240 3;
#X msg 415 240 4;
#X msg 450 240 5;
#X obj 316 281 comport COM9 9600;
#X obj 340 380 bng 15 250 50 0 empty empty empty 17 7 0 10 #fcfcfc
#000000 #000000;
#X obj 372 564 dac~;
#X obj 385 532 *~ 1;
#X obj 470 280 delay 100;
#X obj 600 410 spigot;
#X msg 575 461 1;
#X floatatom 570 500 5 0 0 0 - - -, f 5;
#X msg 610 460 0;
#X obj 660 460 bng 46 250 50 0 empty empty empty 17 7 0 10 #fcfcfc
#000000 #000000;
#X msg 540 150 open /home/admin/Desktop/ProjetSin/loop1.aif;
#X msg 539 190 open /home/admin/Desktop/ProjetSin/loop2.aif;
#X msg 544 227 open /home/admin/Desktop/ProjetSin/loop3.aif;
#X msg 534 257 open /home/admin/Desktop/ProjetSin/loop4.aif;
#X msg 534 297 open /home/admin/Desktop/ProjetSin/loop5.aiff;
#X connect 0 0 22 0;
#X connect 0 1 18 0;
#X connect 0 1 24 0;
#X connect 2 0 3 0;
#X connect 3 0 6 0;
#X connect 4 0 2 0;
#X connect 5 0 35 0;
#X connect 6 0 7 0;
#X connect 6 1 8 0;
#X connect 6 2 9 0;
#X connect 6 3 10 0;
#X connect 6 4 11 0;
#X connect 7 0 5 0;
#X connect 7 0 41 0;
#X connect 7 0 26 0;
#X connect 8 0 42 0;
#X connect 8 0 5 0;
#X connect 8 0 27 0;
#X connect 9 0 43 0;
#X connect 9 0 5 0;
#X connect 9 0 28 0;
#X connect 10 0 44 0;
#X connect 10 0 5 0;
#X connect 10 0 29 0;
#X connect 11 0 45 0;
#X connect 11 0 5 0;
#X connect 11 0 30 0;
#X connect 12 0 0 0;
#X connect 12 0 23 1;
#X connect 13 0 36 0;
#X connect 13 0 40 0;
#X connect 14 0 18 1;
#X connect 15 0 18 2;
#X connect 18 0 13 1;
#X connect 18 1 21 0;
#X connect 20 0 0 0;
#X connect 20 0 23 2;
#X connect 22 0 1 0;
#X connect 22 0 1 1;
#X connect 23 0 34 0;
#X connect 23 1 22 1;
#X connect 23 2 20 0;
#X connect 23 2 39 0;
#X connect 23 3 25 0;
#X connect 24 0 13 0;
#X connect 25 0 18 0;
#X connect 25 0 37 0;
#X connect 25 0 24 0;
#X connect 26 0 31 0;
#X connect 27 0 31 0;
#X connect 28 0 31 0;
#X connect 29 0 31 0;
#X connect 30 0 31 0;
#X connect 32 0 23 0;
#X connect 34 0 33 0;
#X connect 34 0 33 1;
#X connect 35 0 12 0;
#X connect 36 0 4 0;
#X connect 37 0 38 0;
#X connect 38 0 36 1;
#X connect 39 0 38 0;
#X connect 41 0 0 0;
#X connect 42 0 0 0;
#X connect 43 0 0 0;
#X connect 44 0 0 0;
#X connect 45 0 0 0;
